<svg width="22" height="26" viewBox="0 0 22 26" fill="none" xmlns="http://www.w3.org/2000/svg">
<path fill-rule="evenodd" clip-rule="evenodd" d="M8.70623 0.375762C8.31523 -0.0142803 7.68206 -0.0134997 7.29202 0.377506C6.90198 0.768511 6.90276 1.40168 7.29377 1.79172L8.58157 3.07635H7C3.13401 3.07635 0 6.21036 0 10.0764V18.0271C0 21.8931 3.13401 25.0271 7 25.0271H15C18.866 25.0271 22 21.8931 22 18.0271V10.0764C22 6.21036 18.866 3.07635 15 3.07635H13.4184L14.7062 1.79172C15.0972 1.40168 15.098 0.768511 14.708 0.377506C14.3179 -0.0134997 13.6848 -0.0142803 13.2938 0.375762L11 2.66388L8.70623 0.375762ZM2 10.0764C2 7.31493 4.23858 5.07635 7 5.07635H11H15C17.7614 5.07635 20 7.31493 20 10.0764V18.0271C20 20.7885 17.7614 23.0271 15 23.0271H7C4.23858 23.0271 2 20.7885 2 18.0271V10.0764ZM12 14C12 13.6786 11.8455 13.3767 11.5847 13.1888C11.3239 13.0008 10.9887 12.9497 10.6838 13.0513L4.68377 15.0513C4.15983 15.226 3.87667 15.7923 4.05132 16.3162C4.22596 16.8402 4.79228 17.1233 5.31623 16.9487L10 15.3874V17C10 17.3214 10.1545 17.6233 10.4153 17.8112C10.6761 17.9992 11.0113 18.0503 11.3162 17.9487L17.3162 15.9487C17.8402 15.774 18.1233 15.2077 17.9487 14.6838C17.774 14.1598 17.2077 13.8767 16.6838 14.0513L12 15.6126V14Z" fill="#9A9A9A"/>
</svg>
