<svg width="17" height="17" viewBox="0 0 17 17" fill="none" xmlns="http://www.w3.org/2000/svg">
<g clip-path="url(#clip0_8_781)">
<path d="M15.2468 17C15.0343 17 14.8218 16.8938 14.6625 16.7875L8.49997 10.5719L2.33747 16.7875C2.12497 17 1.7531 17.1063 1.48747 16.9469C1.16872 16.8406 1.00935 16.5219 1.00935 16.2031V0.796875C0.956223 0.371875 1.3281 0 1.7531 0H15.2468C15.6718 0 16.0437 0.371875 16.0437 0.796875V16.2031C16.0437 16.5219 15.8312 16.8406 15.5656 16.9469C15.4593 17 15.3531 17 15.2468 17ZM2.54997 1.59375V14.2906L7.54372 9.29688C8.02185 8.81875 8.92497 8.81875 9.4031 9.29688L14.3968 14.2906V1.59375H2.54997Z" fill="#262626"/>
</g>
<defs>
<clipPath id="clip0_8_781">
<rect width="17" height="17" fill="white"/>
</clipPath>
</defs>
</svg>
