<svg width="17" height="19" viewBox="0 0 17 19" fill="none" xmlns="http://www.w3.org/2000/svg">
<g clip-path="url(#clip0_8_772)">
<path d="M9.72194 17.8608C9.72194 17.861 9.72185 17.8605 9.72194 17.8608ZM9.72194 17.8608C9.71816 17.8825 9.7125 17.9089 9.704 17.9355C9.6904 17.9778 9.67443 18.0096 9.65602 18.0339C9.27327 18.0979 8.88823 18.1271 8.50002 18.1271C6.94964 18.1271 5.43407 17.6403 4.14497 16.7283C2.85587 15.8163 1.85114 14.52 1.25784 13.0034C0.664529 11.4868 0.509293 9.81789 0.811758 8.20785C1.11423 6.59781 1.8608 5.11889 2.95709 3.95811C4.05338 2.79734 5.45013 2.00684 6.97074 1.68658C8.49133 1.36633 10.0675 1.53069 11.4999 2.1589C12.9171 2.78048 13.6904 3.50874 14.5615 4.88897C15.6567 6.62463 15.9847 8.40135 15.9847 9.84301C15.9847 11.2905 15.656 12.3301 15.4984 12.6225C15.4474 12.6949 15.3187 12.7924 14.8893 12.7966C14.5634 12.7998 14.2068 12.7517 13.79 12.6955C13.6271 12.6736 13.455 12.6503 13.2719 12.6285C12.6762 12.5573 11.9692 12.5033 11.3351 12.6902C10.644 12.8939 10.0623 13.3773 9.76557 14.267C9.5118 15.0277 9.52455 15.9862 9.57668 16.6786C9.60379 17.0397 9.6445 17.3587 9.67831 17.5877C9.69521 17.7025 9.71061 17.7955 9.72194 17.8608Z" stroke="#252525" stroke-width="1.4"/>
<path d="M13.0805 10.7C13.5239 10.7 13.8833 10.3194 13.8833 9.85C13.8833 9.38056 13.5239 9 13.0805 9C12.6372 9 12.2778 9.38056 12.2778 9.85C12.2778 10.3194 12.6372 10.7 13.0805 10.7Z" fill="#252525"/>
<path d="M11.1917 6.7C11.6351 6.7 11.9945 6.31944 11.9945 5.85C11.9945 5.38056 11.6351 5 11.1917 5C10.7483 5 10.3889 5.38056 10.3889 5.85C10.3889 6.31944 10.7483 6.7 11.1917 6.7Z" fill="#252525"/>
<path d="M6.46946 6.7C6.91283 6.7 7.27224 6.31944 7.27224 5.85C7.27224 5.38056 6.91283 5 6.46946 5C6.0261 5 5.66669 5.38056 5.66669 5.85C5.66669 6.31944 6.0261 6.7 6.46946 6.7Z" fill="#252525"/>
<path d="M3.63609 10.7C4.07945 10.7 4.43887 10.3194 4.43887 9.85C4.43887 9.38056 4.07945 9 3.63609 9C3.19273 9 2.83331 9.38056 2.83331 9.85C2.83331 10.3194 3.19273 10.7 3.63609 10.7Z" fill="#252525"/>
<path d="M6.46946 14.7C6.91283 14.7 7.27224 14.3194 7.27224 13.85C7.27224 13.3806 6.91283 13 6.46946 13C6.0261 13 5.66669 13.3806 5.66669 13.85C5.66669 14.3194 6.0261 14.7 6.46946 14.7Z" fill="#252525"/>
</g>
<defs>
<clipPath id="clip0_8_772">
<rect width="17" height="19" fill="white"/>
</clipPath>
</defs>
</svg>
